<?xml version="1.0" standalone="no"?>
<!DOCTYPE svg PUBLIC "-//W3C//DTD SVG 20010904//EN"
  "http://www.w3.org/TR/2001/REC-SVG-20010904/DTD/svg10.dtd">
<svg version="1.0" xmlns="http://www.w3.org/2000/svg"
     width="1540.000000pt" height="1284.000000pt" viewBox="0 0 1540.000000 1284.000000"
     preserveAspectRatio="xMidYMid meet">

  <g transform="translate(0.000000,1284.000000) scale(0.100000,-0.100000)"
     fill="#000000" stroke="none">
    <path d="M7927 12685 c-17 -77 -58 -460 -82 -752 -21 -255 -34 -946 -45 -2468
-9 -1226 -15 -1525 -28 -1525 -16 0 -701 630 -1357 1249 -337 318 -472 442
-506 464 -58 36 -142 29 -198 -18 -37 -32 -57 -106 -41 -150 16 -43 111 -136
490 -484 184 -169 450 -415 591 -547 140 -131 318 -297 395 -369 76 -71 141
-133 142 -137 2 -4 -777 -8 -1732 -8 l-1736 0 0 70 0 70 -185 0 -184 0 -3 -72
c-4 -91 -1 -89 -203 -117 -264 -36 -364 -40 -1205 -51 -891 -11 -1782 -29
-1789 -36 -2 -2 -2 -6 0 -8 5 -6 811 -24 1369 -31 501 -7 1087 -27 1450 -51
262 -17 367 -29 387 -45 9 -8 13 -37 13 -90 l0 -79 173 2 172 3 8 71 9 71 876
6 c1121 9 2686 9 2786 1 42 -4 75 -10 74 -13 -10 -21 -474 -457 -1193 -1119
-530 -489 -671 -627 -681 -666 -11 -44 23 -114 74 -153 53 -41 103 -51 146
-30 50 24 234 190 917 822 374 347 822 754 894 814 44 36 50 39 59 24 6 -11
13 -677 18 -1748 4 -951 12 -1766 17 -1810 45 -393 74 -625 86 -702 8 -51 15
-96 15 -100 0 -5 5 -1 9 7 5 8 26 139 46 290 20 151 45 322 56 380 28 148 36
561 45 2150 4 723 10 1371 13 1440 l6 125 95 -85 c270 -242 770 -705 1280
-1185 372 -351 447 -416 489 -430 57 -18 169 53 191 121 25 75 3 99 -715 779
-338 321 -586 558 -1035 993 l-105 101 1862 1 1862 0 3 -77 3 -78 180 0 180 0
9 90 c5 50 9 91 11 93 5 5 287 24 665 42 399 20 644 28 1575 50 259 7 474 16
479 21 6 5 -8 9 -35 9 -24 0 -233 4 -464 10 -231 6 -701 15 -1045 20 -640 9
-701 13 -1030 60 -100 15 -138 24 -147 37 -7 9 -13 43 -13 76 0 57 -1 59 -22
53 -13 -3 -94 -6 -180 -6 l-158 0 0 -29 c0 -16 -3 -43 -6 -60 l-6 -31 -1714 0
c-943 0 -1714 2 -1714 4 0 7 120 119 440 412 168 153 379 349 470 434 91 86
260 242 375 349 233 213 318 301 335 342 26 61 -36 168 -110 190 -53 16 -97
-1 -181 -71 -65 -55 -621 -567 -1243 -1145 -385 -357 -569 -525 -577 -525 -14
0 -19 344 -23 1815 -3 843 -10 1590 -16 1690 -27 476 -91 1150 -119 1250 l-8
30 -6 -30z"/>
    <path d="M7190 10853 c-14 -2 -81 -15 -150 -30 -578 -119 -1117 -397 -1555
-801 -356 -328 -610 -681 -784 -1088 -50 -118 -131 -334 -131 -350 0 -3 75 -3
166 -2 l166 3 39 110 c178 502 605 1031 1113 1380 329 227 655 370 1029 451
89 19 166 39 172 45 10 10 15 263 5 272 -10 9 -45 14 -70 10z"/>
    <path d="M8607 10853 c-11 -18 -16 -153 -9 -222 l7 -74 155 -34 c430 -96 817
-276 1185 -553 371 -279 644 -595 830 -960 62 -122 145 -320 161 -383 4 -17
16 -32 31 -38 13 -5 90 -9 170 -9 l145 0 -7 37 c-21 115 -198 500 -332 724
-86 146 -178 263 -366 467 -279 304 -515 490 -862 679 -305 166 -613 276 -960
343 -60 12 -117 23 -127 26 -9 3 -18 1 -21 -3z"/>
    <path d="M10962 6840 c-76 -287 -211 -552 -428 -840 -319 -424 -692 -731
-1159 -956 -237 -114 -406 -172 -652 -222 -157 -32 -149 -19 -138 -209 l8
-125 46 7 c160 24 453 103 636 172 772 291 1400 851 1782 1588 115 222 258
602 251 664 -3 25 -7 26 -73 32 -38 4 -109 7 -156 8 l-86 1 -31 -120z"/>
    <path d="M4545 6940 c-14 -22 87 -335 168 -523 103 -237 253 -487 414 -687
154 -192 418 -446 630 -604 258 -193 613 -387 898 -488 155 -56 595 -161 610
-147 3 3 8 71 11 150 l7 145 -109 23 c-612 131 -1124 421 -1624 921 -302 301
-486 600 -626 1015 l-69 205 -152 0 c-87 0 -154 -4 -158 -10z"/>
    <path d="M12108 4579 c-36 -45 -139 -184 -151 -206 -4 -7 60 -163 143 -349 83
-185 149 -338 147 -340 -2 -3 -163 18 -358 45 -246 35 -358 47 -371 40 -20
-11 -152 -178 -174 -222 -9 -16 -13 -31 -11 -34 5 -4 178 -22 752 -78 148 -15
270 -27 271 -28 0 -1 99 -233 219 -514 120 -282 222 -513 226 -513 6 0 107
131 166 216 l22 31 -96 209 c-52 115 -130 287 -173 382 l-79 172 27 0 c15 0
200 -22 411 -49 256 -33 391 -46 402 -40 16 8 131 155 174 221 14 22 14 29 4
32 -8 2 -138 16 -289 30 -700 65 -825 78 -831 84 -4 4 -89 210 -189 457 -101
248 -188 461 -195 474 l-12 23 -35 -43z"/>
    <path d="M3361 4254 c-137 -37 -287 -159 -348 -284 -62 -127 -65 -230 -17
-515 47 -277 34 -376 -60 -463 -81 -74 -145 -87 -241 -51 -136 51 -241 221
-265 427 -5 47 -11 87 -14 89 -2 2 -61 -4 -131 -13 -86 -11 -128 -21 -132 -31
-9 -24 17 -165 46 -250 46 -134 105 -226 211 -334 109 -110 198 -162 313 -182
150 -25 317 31 433 147 144 144 172 288 124 631 -28 195 -31 364 -8 416 22 50
84 116 129 140 105 53 239 -9 331 -151 36 -57 68 -158 68 -219 0 -25 4 -51 8
-57 5 -8 42 -7 134 4 l127 15 -5 46 c-24 207 -99 359 -243 493 -145 134 -305
184 -460 142z"/>
    <path d="M4242 3105 c-271 -82 -497 -282 -627 -556 -66 -141 -86 -222 -92
-374 -11 -264 66 -462 252 -651 171 -174 441 -313 587 -302 l41 3 34 100 c18
55 32 106 31 114 -2 9 -34 20 -88 31 -311 63 -539 282 -572 547 -44 342 245
748 589 829 105 25 247 15 345 -23 147 -58 286 -182 352 -314 20 -39 36 -78
36 -85 0 -7 4 -15 10 -19 13 -8 230 102 237 121 3 9 -6 42 -22 73 -105 216
-334 405 -602 498 -71 24 -94 27 -253 30 -163 3 -181 1 -258 -22z"/>
    <path d="M10660 3001 c0 -22 106 -619 246 -1381 58 -316 108 -590 111 -608 3
-17 9 -32 13 -32 7 0 205 134 231 157 15 12 13 30 -24 210 l-41 196 33 26 c19
14 175 128 349 253 l315 227 31 -16 c17 -9 95 -54 174 -100 l144 -84 66 47
c155 110 185 136 170 149 -26 25 -1785 975 -1805 975 -7 0 -13 -8 -13 -19z
m488 -515 c87 -51 234 -137 327 -191 94 -54 171 -99 173 -101 5 -4 -487 -359
-502 -362 -9 -2 -16 12 -20 40 -6 39 -130 635 -143 686 -3 12 -2 22 2 22 4 0
77 -42 163 -94z"/>
    <path d="M5589 2523 c-87 -230 -590 -1736 -581 -1744 4 -4 60 -24 125 -45 94
-31 120 -36 126 -25 5 7 68 187 141 399 73 213 137 391 141 396 7 8 603 -187
622 -204 4 -3 -53 -183 -128 -399 -74 -216 -135 -401 -135 -411 0 -10 8 -21
18 -25 44 -18 217 -75 228 -75 7 0 30 53 52 118 22 64 157 458 301 875 144
417 261 762 261 767 0 9 -257 97 -263 90 -2 -3 -57 -160 -122 -350 -65 -190
-121 -349 -126 -354 -6 -7 -465 140 -601 193 l-28 10 120 354 c66 195 120 358
120 364 0 9 -231 93 -254 93 -4 0 -11 -12 -17 -27z"/>
    <path d="M9685 2419 c-13 -37 -228 -1101 -261 -1293 -14 -82 -28 -155 -32
-162 -5 -9 -53 41 -143 149 -305 363 -858 972 -871 959 -13 -13 89 -1880 103
-1896 8 -9 226 40 251 55 7 4 -2 200 -26 580 -19 315 -34 574 -32 577 2 2 40
-41 83 -95 146 -180 746 -843 763 -843 21 0 229 963 245 1136 4 39 10 75 13
81 4 6 122 -214 262 -489 140 -275 260 -507 265 -514 8 -12 30 -9 125 16 63
17 120 32 127 35 17 6 -31 105 -372 775 -284 559 -455 887 -481 924 -11 15
-14 17 -19 5z"/>
    <path d="M7060 2058 c0 -52 -24 -519 -85 -1685 l-7 -121 74 -6 c136 -11 413
-26 620 -32 l205 -7 8 117 c4 65 5 119 4 121 -2 1 -141 10 -308 19 -167 9
-306 18 -309 20 -5 6 27 588 33 594 3 3 98 1 212 -5 115 -5 210 -8 212 -6 6 4
21 236 16 241 -2 3 -98 11 -212 18 -114 7 -210 13 -212 13 -5 1 6 297 16 433
l6 90 71 -6 c39 -3 159 -9 267 -12 l196 -7 6 63 c4 35 7 89 7 121 l0 59 -42 0
c-24 0 -203 9 -398 20 -195 11 -361 20 -367 20 -9 0 -13 -19 -13 -62z"/>
  </g>
</svg>
